<svg width="32" height="41" viewBox="0 0 32 41" fill="none" xmlns="http://www.w3.org/2000/svg">
<path fill-rule="evenodd" clip-rule="evenodd" d="M31.407 19.0339V38.386C31.1255 39.3854 30.3445 40.1665 29.345 40.4479H2.06201C1.02734 40.129 0.241333 39.2825 0 38.2269V19.193C0.692993 17.344 1.24399 16.9739 3.29999 16.9729H5.508V16.0399C5.508 14.0869 5.49298 12.1339 5.508 10.1819C5.49051 5.97144 8.0929 2.19421 12.0332 0.710815C12.8737 0.430054 13.7281 0.192871 14.593 0H16.814C16.9001 0.0557861 16.9937 0.0992432 17.092 0.128906C21.4559 0.620483 24.9694 3.9375 25.711 8.26599C25.9504 10.2792 26.0393 12.3075 25.977 14.334C26.003 15.194 25.977 16.054 25.977 16.975C26.787 16.975 27.498 17.0179 28.201 16.9659C29.648 16.7012 31.0515 17.6066 31.407 19.0339ZM9.45934 16.917H22.0513C22.0513 14.694 22.0593 12.5289 22.0513 10.3639C22.0262 7.31885 19.8457 4.71887 16.8514 4.16394C13.8466 3.63794 10.8932 5.32593 9.82133 8.18188C9.63203 8.61462 9.51643 9.07605 9.47935 9.54688C9.44133 11.995 9.45934 14.443 9.45934 16.917ZM14.2815 31.271C14.2815 33.6919 14.2815 33.6919 16.4685 33.5709C16.4945 33.5709 16.5215 33.5709 16.5475 33.5709C16.9795 33.589 17.1565 33.3979 17.1415 32.9519C17.1155 32.1869 17.1525 31.4199 17.1295 30.652C17.0013 29.8549 17.311 29.0504 17.9405 28.5449C18.5678 27.9799 18.9241 27.1738 18.92 26.3295C18.9157 25.4852 18.5514 24.6827 17.9185 24.1239C17.3181 23.5349 16.5058 23.2125 15.6649 23.2296C14.8239 23.2468 14.0254 23.6019 13.4495 24.215C12.8486 24.7885 12.5151 25.5873 12.5298 26.4178C12.5444 27.2483 12.9058 28.0349 13.5265 28.5869C14.1149 29.0243 14.4075 29.7554 14.2835 30.4779C14.2655 30.7419 14.2794 31.007 14.2794 31.271H14.2815Z" fill="#345FB4"/>
</svg>
