<svg width="13" height="13" viewBox="0 0 13 13" fill="none" xmlns="http://www.w3.org/2000/svg">
<path fill-rule="evenodd" clip-rule="evenodd" d="M6.29999 0C2.82059 0 0 2.8206 0 6.3C0 9.77939 2.82059 12.6 6.29999 12.6C9.77939 12.6 12.6 9.77939 12.6 6.3C12.6 2.8206 9.77939 0 6.29999 0ZM6.29999 11.372C3.49643 11.3725 1.22308 9.10056 1.22198 6.297C1.22134 4.95163 1.75586 3.6597 2.70795 2.70706C3.66006 1.75441 4.95166 1.21912 6.29852 1.21899C7.64563 1.21834 8.93778 1.75308 9.89044 2.70549C10.8431 3.6579 11.3783 4.94989 11.378 6.297C11.3766 9.10103 9.10306 11.3728 6.2995 11.372H6.29999ZM7.86899 8.724C7.93478 8.77275 8.0173 8.7932 8.09824 8.78081C8.17917 8.7684 8.2518 8.7242 8.29999 8.65799L8.77698 8C8.82626 7.93459 8.84668 7.85187 8.83347 7.77104C8.82025 7.6902 8.77454 7.6183 8.707 7.57199L7.00699 6.338V2.73799C7.00378 2.57365 6.87134 2.44119 6.707 2.438H5.89398C5.72964 2.44119 5.59717 2.57365 5.59399 2.73799V6.907C5.59415 7.00397 5.64011 7.09518 5.71799 7.15298L7.86899 8.724Z" fill="#A5A5A5"/>
</svg>
